<?xml version="1.0" encoding="UTF-8" standalone="no"?>
<!-- Created with Inkscape (http://www.inkscape.org/) -->

<svg
   xmlns:dc="http://purl.org/dc/elements/1.1/"
   xmlns:cc="http://creativecommons.org/ns#"
   xmlns:rdf="http://www.w3.org/1999/02/22-rdf-syntax-ns#"
   xmlns:svg="http://www.w3.org/2000/svg"
   xmlns="http://www.w3.org/2000/svg"
   xmlns:sodipodi="http://sodipodi.sourceforge.net/DTD/sodipodi-0.dtd"
   xmlns:inkscape="http://www.inkscape.org/namespaces/inkscape"
   width="35.174999"
   height="149.15938"
   id="svg2"
   version="1.1"
   inkscape:version="0.48.4 r9939"
   sodipodi:docname="hockeystick.svg">
  <defs
     id="defs4">
    <filter
       id="filter4027"
       inkscape:label="Roughen"
       inkscape:menu="ABCs"
       inkscape:menu-tooltip="Small-scale roughening to edges and content"
       color-interpolation-filters="sRGB">
      <feTurbulence
         id="feTurbulence4029"
         numOctaves="3"
         seed="0"
         type="turbulence"
         baseFrequency="0.03798882681564246"
         result="result91" />
      <feDisplacementMap
         id="feDisplacementMap4031"
         in2="result91"
         scale="6.6"
         yChannelSelector="G"
         xChannelSelector="R"
         in="SourceGraphic" />
    </filter>
    <filter
       id="filter4035"
       inkscape:label="Roughen"
       inkscape:menu="ABCs"
       inkscape:menu-tooltip="Small-scale roughening to edges and content"
       color-interpolation-filters="sRGB">
      <feTurbulence
         id="feTurbulence4037"
         numOctaves="3"
         seed="0"
         type="turbulence"
         baseFrequency="0.024581005586592181"
         result="result91" />
      <feDisplacementMap
         id="feDisplacementMap4039"
         in2="result91"
         scale="1.8957346"
         yChannelSelector="G"
         xChannelSelector="R"
         in="SourceGraphic" />
    </filter>
    <filter
       id="filter4182"
       inkscape:label="Roughen"
       inkscape:menu="ABCs"
       inkscape:menu-tooltip="Small-scale roughening to edges and content"
       color-interpolation-filters="sRGB">
      <feTurbulence
         id="feTurbulence4184"
         numOctaves="3"
         seed="0"
         type="turbulence"
         baseFrequency="0.024858757062146894"
         result="result91" />
      <feDisplacementMap
         id="feDisplacementMap4186"
         in2="result91"
         scale="2.8436019"
         yChannelSelector="G"
         xChannelSelector="R"
         in="SourceGraphic" />
    </filter>
  </defs>
  <sodipodi:namedview
     id="base"
     pagecolor="#ffffff"
     bordercolor="#666666"
     borderopacity="1.0"
     inkscape:pageopacity="0.0"
     inkscape:pageshadow="2"
     inkscape:zoom="1.4"
     inkscape:cx="237.21261"
     inkscape:cy="-6.5846292"
     inkscape:document-units="px"
     inkscape:current-layer="layer1"
     showgrid="false"
     inkscape:window-width="1920"
     inkscape:window-height="1018"
     inkscape:window-x="0"
     inkscape:window-y="0"
     inkscape:window-maximized="1"
     fit-margin-top="0"
     fit-margin-left="-3"
     fit-margin-right="0"
     fit-margin-bottom="0"
     showborder="false" />
  <metadata
     id="metadata7">
    <rdf:RDF>
      <cc:Work
         rdf:about="">
        <dc:format>image/svg+xml</dc:format>
        <dc:type
           rdf:resource="http://purl.org/dc/dcmitype/StillImage" />
        <dc:title />
      </cc:Work>
    </rdf:RDF>
  </metadata>
  <g
     inkscape:label="Layer 1"
     inkscape:groupmode="layer"
     id="layer1"
     transform="translate(-449.35,-448.05313)">
    <path
       style="fill:#0075ff;fill-opacity:1;stroke:#000000;stroke-width:0.55825311px;stroke-linecap:butt;stroke-linejoin:miter;stroke-opacity:1;filter:url(#filter4182)"
       d="m 472.12996,505.51256 c 0,0 0,76.1293 0,76.1293 0,0 1.00982,6.9394 -4.00646,6.9394 -5.01627,0 -5.84697,-3.3757 -5.84697,-3.3757 l 0,-79.411"
       id="path4140"
       inkscape:connector-curvature="0" />
    <rect
       style="fill:#c5ffff;fill-opacity:1;stroke:#000000;stroke-width:1.5;stroke-miterlimit:4;stroke-opacity:1;stroke-dasharray:none;stroke-dashoffset:0;filter:url(#filter4027)"
       id="rect3251"
       width="30.304577"
       height="52.654202"
       x="450.27551"
       y="454.22562"
       ry="12.248099" />
    <path
       sodipodi:nodetypes="cssssssssssscc"
       inkscape:connector-curvature="0"
       id="path4200"
       d="m 465.32718,508.059 c -1.35253,-0.0777 -0.77703,1.68353 -1.29077,6.70602 -0.72072,7.04609 0.14593,22.23195 -0.0559,32.90463 -0.23086,12.21054 -0.62258,19.92338 -0.14953,24.68414 0.48314,4.8623 -0.2571,9.92006 -0.0522,12.25368 0.29607,3.37196 2.65772,3.34035 3.41531,2.93706 0.15641,-0.0833 -2.05546,-0.25826 -2.21208,-2.95435 -0.27375,-4.71239 0.16703,-14.54325 0.094,-22.14758 -0.0649,-6.75657 0.29164,-7.56107 0.27536,-14.80771 -0.0213,-9.47528 0.6896,-10.67368 0.49913,-12.4523 -0.30106,-2.81129 -1.09764,-7.68783 -1.13264,-12.28255 -0.0326,-4.28072 1.15245,-8.33911 1.14464,-9.98345 -0.0167,-3.50943 -0.53535,-4.85759 -0.53535,-4.85759 z"
       style="fill:#0000ff;fill-opacity:1;stroke:none" />
    <path
       style="fill:#e2ffff;fill-opacity:1;stroke:#e2ffff;stroke-width:1px;stroke-linecap:butt;stroke-linejoin:miter;stroke-opacity:1"
       d="m 473.43157,457.03149 c -3.09686,3.84754 1.90208,1.64824 0.62138,3.56373 -1.28071,1.91548 -4.36968,5.21701 -0.69141,5.72859 3.67828,0.51157 6.80718,8.94267 6.43185,5.47047 -0.37533,-3.4722 -1.88412,-8.31075 0.0461,-9.44237 1.93024,-1.13162 0.60344,-2.5031 -3.02147,-4.1776 -3.6249,-1.6745 -3.38647,-1.14282 -3.38647,-1.14282 z"
       id="path4136"
       inkscape:connector-curvature="0"
       sodipodi:nodetypes="csssssc" />
    <path
       sodipodi:type="arc"
       style="fill:#ffffff;fill-opacity:1;stroke:none"
       id="path4051"
       sodipodi:cx="422.87512"
       sodipodi:cy="448.85916"
       sodipodi:rx="3.0935924"
       sodipodi:ry="6.5020075"
       d="m 425.96871,448.85916 a 3.0935924,6.5020075 0 1 1 -3.6e-4,-0.10002 l -3.09323,0.10002 z"
       transform="matrix(-0.49444288,0.51071786,-0.20950395,-0.71219631,779.98575,567.56946)"
       sodipodi:start="0"
       sodipodi:end="6.2678022" />
    <path
       sodipodi:nodetypes="csssssssssssssc"
       inkscape:connector-curvature="0"
       id="path4132"
       d="m 456.83062,459.12014 c 0.32439,-0.021 4.46987,-0.75582 5.53371,1.93703 0.54086,1.36905 -0.39431,4.83698 -0.97512,6.84833 -0.48796,1.68983 -0.74796,6.29908 1.76875,4.92063 12.43895,-6.81309 0.92703,5.77615 2.34882,9.50103 1.2982,3.40106 6.29254,-1.08829 7.53547,3.74089 0.39478,1.53385 -1.24313,5.4942 -1.99481,8.36521 -1.75632,6.70825 0.93722,6.84549 0.81107,10.77482 -0.0839,2.61224 -4.11415,2.08717 -8.18391,1.73129 -2.05196,-0.17945 -3.83167,-0.49975 -5.69217,-1.90464 -2.04203,-1.54197 -4.21922,-3.37889 -4.63889,-9.12891 -0.26854,-3.67933 -0.12062,-7.28139 -0.0771,-10.97194 0.005,-0.42189 0.98867,-1.05774 0.98292,-3.8233 -0.0122,-5.8518 0.56792,-15.96088 0.45347,-16.68126 -0.40547,-2.55211 2.1278,-5.30918 2.12779,-5.30918 z"
       style="fill:#87f1ff;fill-opacity:1;stroke:#87f1ff;stroke-width:1.01798737px;stroke-linecap:butt;stroke-linejoin:miter;stroke-opacity:1" />
    <path
       style="fill:#00afff;fill-opacity:1;stroke:#00afff;stroke-width:1px;stroke-linecap:butt;stroke-linejoin:miter;stroke-opacity:1"
       d="m 457.62974,472.17748 c 0.48978,-0.0306 -2.57192,2.18452 -1.06899,4.28115 0.6868,0.95811 1.86354,1.50086 2.19019,1.83991 0.52328,0.54315 -1.93802,2.68497 -1.79063,3.11176 1.03276,2.99043 2.54809,3.06993 1.96285,4.66609 -0.43017,1.17322 3.64348,1.39711 2.01341,3.24011 -0.57547,0.65065 0.6469,2.59068 0.99365,3.0336 0.87676,1.11982 0.46996,1.91034 1.05418,3.16105 0.52075,1.11482 2.04904,2.72368 2.5353,3.25046 4.54568,4.9245 1.98441,2.60569 1.85814,6.39376 -0.084,2.51833 -1.87087,1.27371 -5.94452,0.93062 -2.05393,-0.17299 -1.05742,-0.48178 -2.9197,-1.83617 -1.72176,-1.25219 -2.37569,-7.9504 -2.917,-8.38958 -0.90088,-0.73092 -1.27927,0.57369 -1.79579,1.54387 -0.24511,0.46038 -0.27713,-0.60288 -0.30222,-0.93403 -0.0314,-0.41468 -0.34001,-2.72615 0.0594,-2.34674 0.75632,0.71839 0.13024,0.82978 1.53949,-0.63858 0.31203,-0.32512 0.43396,-6.66873 0.39362,-9.04355 -0.0396,-2.33362 -1.73718,-3.87326 -1.89672,-4.05098 -0.1513,-0.16854 -0.32532,-1.15906 0.31572,-1.33576 0.60882,-0.16782 0.59081,-1.37103 0.57854,-1.77221 -0.034,-1.11242 0.77642,-7.27641 1.29296,-7.59208 2.27284,-1.38896 1.84808,2.48731 1.84808,2.48731 z"
       id="path4091"
       inkscape:connector-curvature="0"
       sodipodi:nodetypes="cssssssssssssssssssssscc" />
    <path
       sodipodi:nodetypes="cssssssscc"
       inkscape:connector-curvature="0"
       id="path4111"
       d="m 458.34266,490.45919 c -0.66289,1.11362 -1.25833,2.16384 -0.42292,4.2226 0.39476,0.97282 1.44379,-1.04144 1.67251,-0.67658 0.63605,1.01467 -0.85682,2.24082 -0.11427,3.6678 1.11741,2.14738 4.36148,4.52374 4.14026,5.51862 -0.2448,1.10091 -1.27301,-1.42743 -2.61006,-2.47686 -0.72573,-0.56961 -2.9505,-2.1399 -3.33978,-2.87606 -0.40514,-0.76619 -1.06299,-2.21386 -0.79022,-4.68712 0.17455,-1.58259 0.43006,-3.23074 0.74283,-4.79231 0.43636,-2.60103 1.51865,0.51695 0.72165,2.09991 z"
       style="fill:#005cdd;fill-opacity:1;stroke:#005cdd;stroke-width:0.44759071px;stroke-linecap:butt;stroke-linejoin:miter;stroke-opacity:1" />
    <rect
       ry="12.248099"
       y="454.22562"
       x="450.27551"
       height="52.654202"
       width="30.304577"
       id="rect4134"
       style="fill:none;stroke:#000000;stroke-width:1.5;stroke-miterlimit:4;stroke-opacity:1;stroke-dasharray:none;stroke-dashoffset:0;filter:url(#filter4027)" />
    <path
       style="fill:#00afff;fill-opacity:1;stroke:#00afff;stroke-width:0.44245243px;stroke-linecap:butt;stroke-linejoin:miter;stroke-opacity:1"
       d="m 462.92473,488.42834 c -1.3967,-3.63143 3.12861,-4.0225 2.40232,-2.6258 -0.72628,1.3967 -1.78777,3.74316 -2.40232,2.6258 z"
       id="path4138"
       inkscape:connector-curvature="0"
       sodipodi:nodetypes="csc" />
    <path
       style="fill:#00b9ff;fill-opacity:1;stroke:none"
       d="m 471.47258,510.35831 c -1.35253,-0.0777 -1.40204,1.77282 -1.91577,6.79531 -0.39909,3.90166 1.19212,8.69536 0.90435,14.56678 -0.23191,4.73189 -1.7477,10.29354 -1.83775,15.05639 -0.0718,3.79872 1.44793,6.80499 1.37586,9.77964 -0.15961,6.587 -1.85127,11.62482 -1.52539,14.9045 1.18125,11.88804 0.92052,15.33743 2.20241,14.65503 0.42979,-0.22879 0.76458,-14.7541 0.64978,-26.70908 -0.0649,-6.75657 0.96735,-9.53775 0.54322,-16.77199 -0.11057,-1.88599 -0.73897,-9.60226 -0.48301,-14.41659 0.28996,-5.45382 0.63784,-9.5931 0.62165,-13.0024 -0.0166,-3.50943 -0.53535,-4.85759 -0.53535,-4.85759 z"
       id="path4198"
       inkscape:connector-curvature="0"
       sodipodi:nodetypes="cssssssssssc" />
    <path
       style="fill:#87f1ff;fill-opacity:1;stroke:none"
       d="m 475.44972,481.27345 c 4.90087,4.73752 -0.72996,11.14979 -0.98018,7.02459 -0.19276,-3.17794 0.82873,-3.96721 -1.96036,-4.90088 -2.59681,-0.8693 0.16337,-4.08406 2.94054,-2.12371 z"
       id="path4202"
       inkscape:connector-curvature="0"
       sodipodi:nodetypes="cssc" />
    <path
       sodipodi:nodetypes="ccc"
       inkscape:connector-curvature="0"
       id="path4204"
       d="m 468.30686,524.48774 c 1.86516,7.9518 -0.90853,11.32836 -1.15875,7.20316 -0.15751,-3.16426 -1.73152,-13.13815 1.15875,-7.20316 z"
       style="fill:#00b9ff;fill-opacity:1;stroke:none" />
    <path
       style="fill:#0000ff;fill-opacity:1;stroke:none"
       d="m 466.48836,584.60051 c -0.33535,-2.59952 0.40711,-4.59596 0.13032,-6.13238 -0.51547,-2.8613 -1.10934,-2.54941 -1.09495,0.13458 0.0194,1.19697 0.35319,1.50612 0.22977,3.43807 -0.0567,0.88735 -0.48087,2.12789 -0.27712,2.98019 0.223,0.93278 1.08334,1.44466 1.20367,1.59536 0.16316,0.20434 0.10163,-0.39631 -0.19169,-2.01582 z"
       id="path4206"
       inkscape:connector-curvature="0"
       sodipodi:nodetypes="cscsssc" />
  </g>
</svg>
